# xmcd
#
# Track frame offsets:
#	150
#	16410
#	29682
#	45286
#	64359
#	80442
#	95568
#	111357
#	126920
#	147102
#	168461
#	181578
#	190498
#	204326
#	219058
#	233274
#	245226
#	260555
#	280953
#	294765
#	310909
#	324844
#
# Disc length: 4559 seconds
#
# Revision: 0
# Processed by: cddbd v1.5.2PL0 Copyright (c) Steve Scherf et al.
# Submitted via: dBpowerAMP V4.0
#
DISCID=3611cd16
DTITLE=Stone et Charden - Best of
DYEAR=1900
DGENRE=French
TTITLE0=L'Avventura
TTITLE1=Il y a du soleil sur la France
TTITLE2=Le prix des allumettes
TTITLE3=Made in Normandie
TTITLE4=Laisse aller la musique
TTITLE5=Champagne Lulu
TTITLE6=Et maintenant si on dansait
TTITLE7=Le seul bébé qui ne pleure pas
TTITLE8=Comme tu reviens
TTITLE9=L'été s'ra haud
TTITLE10=Pense à moi
TTITLE11=14 ans les gauloises
TTITLE12=Le monde est gris...
TTITLE13=Nous quand on prenait le train
TTITLE14=Candy
TTITLE15=Vive la France
TTITLE16=J'ai toujours chanté...
TTITLE17=La Gauche
TTITLE18=Marche avec moi
TTITLE19=Je vous espère
TTITLE20=La suite de ma vie
TTITLE21=J't'ai tout donné
EXTD=
EXTT0=
EXTT1=
EXTT2=
EXTT3=
EXTT4=
EXTT5=
EXTT6=
EXTT7=
EXTT8=
EXTT9=
EXTT10=
EXTT11=
EXTT12=
EXTT13=
EXTT14=
EXTT15=
EXTT16=
EXTT17=
EXTT18=
EXTT19=
EXTT20=
EXTT21=
PLAYORDER=
